<?xml version="1.0" encoding="utf-8"?>
<!DOCTYPE svg PUBLIC "-//W3C//DTD SVG 1.1//EN" "http://www.w3.org/Graphics/SVG/1.1/DTD/svg11.dtd">
<svg version="1.1" xmlns="http://www.w3.org/2000/svg" width="5000px" height="5000px" viewBox="0 0 5000 5000" preserveAspectRatio="xMidYMid meet">
 <g fill="#17ef63">
  <path d="M0 2500 l0 -2500 2500 0 2500 0 0 2500 0 2500 -2500 0 -2500 0 0 -2500z m2602.5 1513.8 c60.5 -4.8 119.3 -12 152.5 -18.5 6.3 -1.3 18 -3.5 26.3 -5 17.8 -3.5 24.5 -5 67.5 -15.5 109.3 -26.3 214 -64.8 316.5 -116 23.8 -11.8 33 -16.8 66 -35 60.5 -33.5 169.3 -107 211.3 -142.8 3.5 -3 14.8 -12.5 25 -21 54.8 -45.3 128 -117.3 179 -176.3 65.8 -76.3 136 -177 182.8 -262.5 17 -30.8 68.3 -136.3 68.3 -140 0 -0.8 2.3 -6 4.8 -12 39.8 -87.8 79.8 -229.5 97.5 -346.8 1.5 -9 3.3 -20.8 4 -26 3 -17.8 6.3 -51.8 10 -101.5 13.8 -181.5 -14 -388 -77.5 -578.8 -39.5 -118.3 -99 -239.3 -169.3 -344.5 -18.8 -28.3 -49 -71.3 -52 -74.3 -0.8 -0.8 -8.5 -10.8 -17.5 -22.5 -8.8 -11.8 -16.8 -21.8 -17.5 -22.5 -0.8 -0.8 -6.3 -7.5 -12.5 -15 -6.3 -7.5 -11.8 -14.3 -12.5 -15 -0.8 -0.8 -9.5 -10.8 -19.8 -22.5 -26.5 -30.3 -114.3 -117.5 -145.3 -144 -14.5 -12.5 -38.5 -32.5 -53.8 -44.5 -15 -12 -29.3 -23.3 -31.3 -24.8 -7.5 -6 -74 -53.3 -85 -60.3 -35.3 -22.8 -77.3 -49 -78.8 -49 -0.8 0 -18.8 -10.5 -40 -23.3 -4.3 -2.5 -31.8 -16.5 -61.3 -31.3 -177.8 -88.8 -246.8 -108.3 -420 -118 -71.3 -4.3 -453.5 -4.5 -495 -0.5 -107.3 10.5 -172.5 27.3 -260 67.5 -9 4 -22.8 10.3 -30.5 14 -101.3 45.5 -214.3 109.8 -290.8 164.8 -84.3 60.8 -139.3 107.3 -207.5 175.5 -56.5 56.5 -70.3 72.3 -139.5 158.8 -1.8 2 -5.8 7.8 -9.3 12.5 -3.3 4.8 -6.8 9.3 -7.5 10 -0.8 0.8 -6.5 8.5 -12.8 17.5 -6 9 -11.5 16.8 -12.3 17.5 -6 5.5 -64.8 100.3 -84.3 136.3 -16.3 29.8 -53.8 106.5 -65.8 135 -13 30.8 -25 60.5 -27.5 68.8 -1.3 3.5 -5.8 16.5 -10 28.8 -16.3 45.8 -26.5 81 -41 140 -47.8 194.3 -55.3 382.3 -23.8 578.8 20 124.8 56 247 107.5 367.5 7.3 17 57.3 117 66.3 132.5 26.8 46.5 71.5 117.5 84 133.8 1 1.5 14.5 19.5 30 40 15.3 20.8 28.5 38 29.3 38.8 1 0.8 5.5 6.3 10.3 12.5 4.8 6.3 9.3 11.8 10 12.5 0.8 0.8 7.5 8.5 15 17.5 23.3 27.5 37 42 86.3 91.3 48.3 48.5 60 59.5 88.8 83.8 9 7.5 16.8 14.3 17.5 15 0.8 0.8 6.3 5.3 12.5 10 6.3 4.8 11.8 9.3 12.5 10.3 8.3 10 127 92 168.8 116.5 33.8 20 40.5 23.5 91.3 49 70.8 35.5 105 50 176.3 73.8 114.8 38.5 231.5 64 345 75.5 81.5 8.3 175.8 9.5 248.8 3.8z"/>
  <path d="M2397.5 3507.8 c-39 -10.3 -57.3 -28.3 -70 -69 -10.5 -32.8 -24.3 -53.8 -58.5 -87.5 -25.3 -25 -57 -47.8 -89 -63.8 -80 -40 -155 -117.8 -199.5 -206.3 -22.3 -44.8 -33 -85 -33 -123.8 0 -37.8 8.3 -58.5 32.5 -82.5 28.3 -28 56.5 -41.3 92.3 -44 28.5 -2 50 2 72.5 13 24.5 12.3 47.3 35 64 64.3 46.8 82.3 77.3 112.3 131.3 128.8 45.5 14 139 19.5 201.5 11.8 47 -5.8 99.3 -20.8 127.3 -36.5 31.5 -17.5 41.8 -25 62.8 -45.8 32 -31.8 50.8 -70.3 55 -112.8 2.8 -27.3 -7.5 -67.5 -26.5 -105 -12 -23.3 -34.8 -56.3 -48.5 -69.3 -26.5 -26 -75.8 -45.8 -145.3 -58.3 -13.8 -2.5 -60.8 -8.8 -86.3 -11.3 -165.3 -16.8 -246.3 -34.3 -313.8 -67.5 -48.3 -23.8 -84.5 -54.8 -120 -102.5 -75 -100.8 -108.8 -198.8 -108.8 -314.3 0.3 -128 47 -248 128.5 -329.8 35.3 -35 59.8 -51.8 116.5 -80 22.8 -11.3 48.5 -25.8 57.5 -32.5 41.8 -30.8 70.5 -67.5 80 -102.3 6.5 -24.5 17.8 -44.3 34.8 -61.3 31.3 -31 62 -41.5 115.8 -39.3 25 1 36.5 2.5 46.5 6.3 39.8 15.3 66 42.8 78 81.8 9 29.3 24.8 54 52.3 81.5 28.3 28 57.8 48.5 104.8 72.8 47.5 24.5 78 47.3 117 87.3 69.3 71.5 108.5 153.8 108.5 226.8 0 38.5 -8.3 62.3 -30 86.3 -15.8 17.3 -36 31.5 -55.8 38.8 -17.8 6.8 -60.8 7.8 -80 1.8 -13.5 -4 -43.8 -19.5 -50.8 -25.8 -2.8 -2.3 -11.5 -9.8 -19.5 -16.8 -12 -10 -37.3 -38.3 -54.8 -61.3 -1.8 -2.3 -8 -10.3 -13.8 -18 -28.3 -37 -70.3 -69.8 -103 -80.3 -76 -24.5 -181.8 -16.3 -253.3 19.8 -31.8 16 -63.5 49.8 -85.8 90.8 -25.5 47 -25.3 83.5 1 122 27.8 40.8 80.8 72.3 161.8 95.5 48 14 80.8 20 165 30.5 135.8 16.8 235 53 310 113 18.5 14.8 58.3 55.5 74 75.5 24.3 30.8 57.8 82.8 71.5 111.3 47.5 97.8 60.3 213.8 36 326.3 -13.5 63 -45.8 132 -86.3 185 -4.3 5.5 -8.3 10.5 -9 11.3 -0.8 0.8 -9 10 -18.3 20.5 -14.3 16 -34.8 34.5 -67.8 61.3 -12.3 10 -43.3 28.5 -64.3 38.8 -13 6.3 -42.3 20.5 -65 31.5 -54.8 26.8 -87.5 50.5 -116.5 84.3 -12.5 14.3 -20.5 30.5 -28 55 -13.3 43.8 -35.3 65.3 -76.3 74.8 -24 5.8 -99.3 5.3 -121.5 -0.8z"/>
 </g>
 <g fill="#ffffff">
  <path d="M2400 4022.3 c-143.8 -11 -266.3 -35.8 -398.8 -80.3 -71.3 -23.8 -105.5 -38.3 -176.3 -73.8 -50.8 -25.5 -57.5 -29 -91.3 -49 -41.8 -24.5 -160.5 -106.5 -168.8 -116.5 -0.8 -1 -6.3 -5.5 -12.5 -10.3 -6.3 -4.8 -11.8 -9.3 -12.5 -10 -0.8 -0.8 -8.5 -7.5 -17.5 -15 -48.3 -40.8 -134.5 -127 -175 -175 -7.5 -9 -14.3 -16.8 -15 -17.5 -0.8 -0.8 -5.3 -6.3 -10 -12.5 -4.8 -6.3 -9.3 -11.8 -10.3 -12.5 -0.8 -0.8 -14 -18 -29.3 -38.8 -15.5 -20.5 -29 -38.5 -30 -40 -12.5 -16.3 -57.3 -87.3 -84 -133.8 -9 -15.5 -59 -115.5 -66.3 -132.5 -51.5 -120.5 -87.5 -242.8 -107.5 -367.5 -16.3 -100.8 -22.8 -207.3 -18 -298.3 3.5 -70.3 7.5 -111.3 15.5 -164.3 13.8 -90.3 38.5 -190.3 67.3 -271.3 4.3 -12.3 8.8 -25.3 10 -28.8 2.5 -8.3 14.5 -38 27.5 -68.8 12 -28.5 49.5 -105.3 65.8 -135 19.5 -36 78.3 -130.8 84.3 -136.3 0.8 -0.8 6.3 -8.5 12.3 -17.5 6.3 -9 12 -16.8 12.8 -17.5 0.8 -0.8 4.3 -5.3 7.5 -10 3.5 -4.8 7.5 -10.5 9.3 -12.5 69.3 -86.5 83 -102.3 139.5 -158.8 68.3 -68.3 123.3 -114.8 207.5 -175.5 76.5 -55 189.5 -119.3 290.8 -164.8 7.8 -3.8 21.5 -10 30.5 -14 87.5 -40.3 152.5 -57 260 -67.5 41.5 -4 438.5 -3.8 510 0.5 173.3 9.8 242.3 29.3 420 118 29.5 14.8 57 28.8 61.3 31.3 21.3 12.8 39.3 23.3 40 23.3 1.5 0 43.5 26.3 78.8 49 11 7 77.5 54.3 85 60.3 2 1.5 16.3 12.8 31.3 24.8 15.3 12 39.3 32 53.8 44.5 31 26.5 118.8 113.8 145.3 144 10.3 11.8 19 21.8 19.8 22.5 0.8 0.8 6.3 7.5 12.5 15 6.3 7.5 11.8 14.3 12.5 15 0.8 0.8 8.8 10.8 17.5 22.5 9 11.8 16.8 21.8 17.5 22.5 3 3 33.3 46 52 74.3 70.3 105.3 129.8 226.3 169.3 344.5 53.3 159.8 81.3 329.5 81.3 493.8 0 58.5 -6.8 158.3 -13.8 201.5 -0.8 5.3 -2.5 17 -4 26 -17.8 117.3 -57.8 259 -97.5 346.8 -2.5 6 -4.8 11.3 -4.8 12 0 3.8 -51.3 109.3 -68.3 140 -46.8 85.5 -117 186.3 -182.8 262.5 -51 59 -124.3 131 -179 176.3 -10.3 8.5 -21.5 18 -25 21 -42 35.8 -150.8 109.3 -211.3 142.8 -33 18.3 -42.3 23.3 -66 35 -102.5 51.3 -207.3 89.8 -316.5 116 -43 10.5 -49.8 12 -67.5 15.5 -8.3 1.5 -20 3.8 -26.3 5 -33.3 6.5 -92 13.8 -152.5 18.5 -49.5 4 -164.8 4.5 -210 1z m111.5 -521.3 c41 -9.5 63 -31 76.3 -74.8 7.5 -24.5 15.5 -40.8 28 -55 29 -33.8 61.8 -57.5 116.5 -84.3 22.8 -11 52 -25.3 65 -31.5 21 -10.3 52 -28.8 64.3 -38.8 33 -26.8 53.5 -45.3 67.8 -61.3 9.3 -10.5 17.5 -19.8 18.3 -20.5 8 -8 30 -40.5 44.5 -65.5 47.3 -81.8 70.3 -188.3 60.5 -278.3 -9.8 -89.3 -34.8 -156 -88.3 -235 -38.5 -57 -84 -104.3 -130.8 -135.5 -72 -48.8 -161.8 -78.3 -282.3 -93 -99.8 -12.5 -150.5 -23.3 -206.8 -43.8 -20.3 -7.5 -59.3 -27 -73.5 -36.8 -28.8 -19.8 -53.5 -49.8 -62.5 -76 -6.3 -18.5 -5.8 -53 1 -74 12.3 -38.3 45.3 -84.8 76.8 -109 60.8 -46.5 201.5 -63 291.3 -34 32.8 10.5 74.8 43.3 103 80.3 5.8 7.8 12 15.8 13.8 18 17.5 23 42.8 51.3 54.8 61.3 8 7 16.8 14.5 19.5 16.8 7 6.3 37.3 21.8 50.8 25.8 18.3 5.5 47.8 4.8 65 -1.8 19.8 -7.3 40 -21.5 55.8 -38.8 27 -30 35.8 -67.8 26.3 -113.3 -13.5 -64 -49.8 -127.8 -104.8 -184.8 -39 -40 -69.5 -62.8 -117 -87.3 -86.8 -44.5 -139 -96 -157 -154.3 -12 -39 -38.5 -66.8 -78 -81.5 -19.8 -7.5 -59.3 -9.3 -82.5 -3.5 -49.3 11.8 -86.3 48 -99.5 97.5 -9.5 34.8 -38.3 71.5 -80 102.3 -9 6.8 -34.8 21.3 -57.5 32.5 -56.8 28.3 -81.3 45 -116.5 80 -22.8 22.8 -34.3 37.3 -53.5 66.5 -55.3 84.3 -83 198.8 -72.5 299.5 10.3 98.5 41.5 176 106.3 263 35.5 47.8 71.8 78.8 120 102.5 67.5 33.3 148.5 50.8 313.8 67.5 125.3 12.8 194.8 33.5 231.5 69.5 23.5 22.8 54.8 74.8 65.3 109.3 15.3 48.8 13.3 97 -5.8 137.8 -15.3 33.3 -50.8 71 -84.8 90.8 -20.8 12.3 -25.5 14.5 -45 22.3 -60.5 24.3 -141.5 33 -235.5 25.5 -114.5 -9 -150.3 -33 -212 -141.8 -50.3 -88.5 -143.3 -103 -213.8 -33.3 -29.8 29.5 -38 60.3 -28.8 107.8 20.8 109.5 120.5 235.5 228.8 289.8 32 16 63.8 38.8 89 63.8 34.3 33.8 48 54.8 58.5 87.5 12.8 40.8 31 58.8 70 69 22 5.8 83 6.3 106.5 0.8z"/>
 </g>
</svg>