<?xml version="1.0" encoding="utf-8"?>
<!DOCTYPE svg PUBLIC "-//W3C//DTD SVG 1.1//EN" "http://www.w3.org/Graphics/SVG/1.1/DTD/svg11.dtd">
<svg version="1.1" xmlns="http://www.w3.org/2000/svg" width="5000px" height="5000px" viewBox="0 0 5000 5000" preserveAspectRatio="xMidYMid meet">
 <g fill="#3673fc">
  <path d="M0 2500 l0 -2500 2500 0 2500 0 0 2500 0 2500 -2500 0 -2500 0 0 -2500z m3943.8 1114 c50.3 -10.8 89.3 -50.5 100.3 -102 2.8 -13 3.3 -174.8 3.5 -970 0 -525 -0.8 -954.5 -1.5 -954.5 -1.3 0 -32 26 -38.5 32.5 -0.8 0.8 -8.5 7.5 -17.5 15 -9 7.5 -16.8 14.3 -17.5 15 -0.8 0.8 -8.5 7.5 -17.5 15 -9 7.5 -16.8 14.3 -17.5 15 -0.8 0.8 -17.5 15.5 -37.5 32.5 -20 17 -36.8 31.8 -37.5 32.5 -0.8 0.8 -8.5 7.5 -17.5 15 -9 7.5 -16.8 14.3 -17.5 15 -0.8 0.8 -8.5 7.5 -17.5 15 -9 7.5 -16.8 14.3 -17.5 15 -0.8 0.8 -9.8 8.5 -20 17.5 -10.3 9 -19.3 16.8 -20 17.5 -0.8 0.8 -8.5 7.5 -17.5 15 -9 7.5 -16.8 14.3 -17.5 15 -0.8 0.8 -8.5 7.5 -17.5 15 -9 7.5 -16.8 14.3 -17.5 15 -0.8 0.8 -9.8 8.5 -20 17.5 -10.3 9 -19.3 16.8 -20 17.5 -0.8 0.8 -8.5 7.5 -17.5 15 -9 7.5 -16.8 14.3 -17.5 15 -0.8 0.8 -8.5 7.5 -17.5 15 -9 7.5 -16.8 14.3 -17.5 15 -0.8 0.8 -17.5 15.5 -37.5 32.5 -20 17 -36.8 31.8 -37.5 32.5 -0.8 0.8 -8.5 7.5 -17.5 15 -9 7.5 -16.8 14.3 -17.5 15 -0.8 0.8 -8.5 7.5 -17.5 15 -9 7.5 -16.8 14.3 -17.5 15 -0.8 0.8 -9.8 8.5 -20 17.5 -10.3 9 -19.3 16.8 -20 17.5 -0.8 0.8 -8.5 7.5 -17.5 15 -9 7.5 -16.8 14.3 -17.5 15 -0.8 0.8 -8.5 7.5 -17.5 15 -9 7.5 -16.8 14.3 -17.5 15 -0.8 0.8 -9.8 8.5 -20 17.5 -10.3 9 -19.3 16.8 -20 17.5 -0.8 0.8 -8.5 7.5 -17.5 15 -9 7.5 -16.8 14.3 -17.5 15 -0.8 0.8 -8.5 7.5 -17.5 15 -9 7.5 -16.8 14.3 -17.5 15 -0.8 0.8 -17.5 15.5 -37.5 32.5 -20 17 -36.8 31.8 -37.5 32.5 -0.8 0.8 -8.5 7.5 -17.5 15 -9 7.5 -16.8 14.3 -17.5 15 -0.8 0.8 -17.5 15.5 -37.5 32.5 -20 17 -36.8 31.8 -37.5 32.5 -0.8 0.8 -8.5 7.5 -17.5 15 -9 7.5 -16.8 14.3 -17.5 15 -0.8 0.8 -8.5 7.5 -17.5 15 -9 7.5 -16.8 14.3 -17.5 15 -0.8 0.8 -9.8 8.5 -20 17.5 -10.3 9 -19.3 16.8 -20 17.5 -0.8 0.8 -8.5 7.5 -17.5 15 -9 7.5 -16.8 14.3 -17.5 15 -0.8 0.8 -8.5 7.5 -17.5 15 -9 7.5 -16.8 14.3 -17.5 15 -0.8 0.8 -17.5 15.5 -37.5 32.5 -20 17 -36.8 31.8 -37.5 32.5 -0.8 0.8 -8.5 7.5 -17.5 15 -9 7.5 -19 16.3 -22.5 19.5 -18 17 -49.3 39.3 -70.3 50 -30.5 16 -50.8 22.8 -89.3 30.5 -19.8 3.8 -88.5 3.3 -110.5 -1 -61.5 -12 -117.5 -41.5 -171.3 -90.5 -3 -2.8 -12.5 -11 -21.3 -18.5 -9 -7.5 -16.8 -14.3 -17.5 -15 -0.8 -0.8 -8.5 -7.5 -17.5 -15 -9 -7.5 -16.8 -14.3 -17.5 -15 -0.8 -0.8 -8.5 -7.5 -17.5 -15 -9 -7.5 -16.8 -14.3 -17.5 -15 -0.8 -0.8 -8.5 -7.5 -17.5 -15 -9 -7.5 -16.8 -14.3 -17.5 -15 -0.8 -0.8 -8.5 -7.5 -17.5 -15 -9 -7.5 -16.8 -14.3 -17.5 -15 -0.8 -0.8 -8.5 -7.5 -17.5 -15 -9 -7.5 -16.8 -14.3 -17.5 -15 -0.8 -1 -25.5 -22.3 -55 -47.5 -29.5 -25.3 -54.3 -46.5 -55 -47.5 -0.8 -0.8 -8.5 -7.5 -17.5 -15 -9 -7.5 -16.8 -14.3 -17.5 -15 -0.8 -0.8 -8.5 -7.5 -17.5 -15 -9 -7.5 -16.8 -14.3 -17.5 -15 -0.8 -0.8 -8.5 -7.5 -17.5 -15 -9 -7.5 -16.8 -14.3 -17.5 -15 -0.8 -0.8 -8.5 -7.5 -17.5 -15 -9 -7.5 -16.8 -14.3 -17.5 -15 -0.8 -0.8 -8.5 -7.5 -17.5 -15 -9 -7.5 -16.8 -14.3 -17.5 -15 -0.8 -0.8 -8.5 -7.5 -17.5 -15 -9 -7.5 -16.8 -14.3 -17.5 -15 -0.8 -0.8 -8.5 -7.5 -17.5 -15 -9 -7.5 -16.8 -14.3 -17.5 -15 -0.8 -0.8 -8.5 -7.5 -17.5 -15 -9 -7.5 -16.8 -14.3 -17.5 -15 -0.8 -0.8 -17.5 -15.5 -37.5 -32.5 -20 -17 -36.8 -31.8 -37.5 -32.5 -0.8 -0.8 -8.5 -7.5 -17.5 -15 -9 -7.5 -16.8 -14.3 -17.5 -15 -0.8 -0.8 -8.5 -7.5 -17.5 -15 -9 -7.5 -16.8 -14.3 -17.5 -15 -0.8 -0.8 -8.5 -7.5 -17.5 -15 -9 -7.5 -16.8 -14.3 -17.5 -15 -0.8 -0.8 -8.5 -7.5 -17.5 -15 -9 -7.5 -16.8 -14.3 -17.5 -15 -0.8 -0.8 -8.5 -7.5 -17.5 -15 -9 -7.5 -16.8 -14.3 -17.5 -15 -0.8 -0.8 -8.5 -7.5 -17.5 -15 -9 -7.5 -16.8 -14.3 -17.5 -15 -0.8 -0.8 -8.5 -7.5 -17.5 -15 -9 -7.5 -16.8 -14.3 -17.5 -15 -0.8 -1 -25.5 -22.3 -55 -47.5 -29.5 -25.3 -54.3 -46.5 -55 -47.5 -0.8 -0.8 -8.5 -7.5 -17.5 -15 -9 -7.5 -16.8 -14.3 -17.5 -15 -0.8 -0.8 -8.5 -7.5 -17.5 -15 -9 -7.5 -16.8 -14.3 -17.5 -15 -0.8 -0.8 -8.5 -7.5 -17.5 -15 -9 -7.5 -16.8 -14.3 -17.5 -15 -0.8 -0.8 -8.5 -7.5 -17.5 -15 -9 -7.5 -16.8 -14.3 -17.5 -15 -0.8 -0.8 -8.5 -7.5 -17.5 -15 -9 -7.5 -16.8 -14.3 -17.5 -15 -0.8 -0.8 -8.5 -7.5 -17.5 -15 -9 -7.5 -16.8 -14.3 -17.5 -15 -0.8 -0.8 -21.3 -18.8 -45.5 -39.5 l-44.5 -38.3 0 964.5 c0.3 804 0.8 967.3 3.5 980.3 11 51 50 91 99 102 20.8 4.5 2867.3 4.8 2888.8 0z m-1411.5 -1044.5 c9.3 -3.3 32.5 -17.8 41.5 -26.3 2.8 -2.5 12.3 -10.8 21.3 -18.3 9 -7.5 16.8 -14.3 17.5 -15 0.8 -0.8 8.5 -7.5 17.5 -15 9 -7.5 16.8 -14.3 17.5 -15 0.8 -0.8 17.5 -15.5 37.5 -32.5 20 -17 36.8 -31.8 37.5 -32.5 0.8 -0.8 8.5 -7.5 17.5 -15 9 -7.5 16.8 -14.3 17.5 -15 0.8 -0.8 8.5 -7.5 17.5 -15 9 -7.5 16.8 -14.3 17.5 -15 0.8 -0.8 8.5 -7.5 17.5 -15 9 -7.5 16.8 -14.3 17.5 -15 0.8 -0.8 8.5 -7.5 17.5 -15 9 -7.5 16.8 -14.3 17.5 -15 0.8 -0.8 17.5 -15.5 37.5 -32.5 20 -17 36.8 -31.8 37.5 -32.5 0.8 -0.8 8.5 -7.5 17.5 -15 9 -7.5 16.8 -14.3 17.5 -15 0.8 -0.8 8.5 -7.5 17.5 -15 9 -7.5 16.8 -14.3 17.5 -15 0.8 -0.8 8.5 -7.5 17.5 -15 9 -7.5 16.8 -14.3 17.5 -15 0.8 -0.8 8.5 -7.5 17.5 -15 9 -7.5 16.8 -14.3 17.5 -15 0.8 -0.8 8.5 -7.5 17.5 -15 9 -7.5 16.8 -14.3 17.5 -15 0.8 -0.8 17.5 -15.5 37.5 -32.5 20 -17 36.8 -31.8 37.5 -32.5 0.8 -0.8 8.5 -7.5 17.5 -15 9 -7.5 16.8 -14.3 17.5 -15 0.8 -0.8 8.5 -7.5 17.5 -15 9 -7.5 16.8 -14.3 17.5 -15 0.8 -0.8 8.5 -7.5 17.5 -15 9 -7.5 16.8 -14.3 17.5 -15 0.8 -0.8 8.5 -7.5 17.5 -15 9 -7.5 16.8 -14.3 17.5 -15 0.8 -0.8 8.5 -7.5 17.5 -15 9 -7.5 16.8 -14.3 17.5 -15 0.8 -0.8 9.8 -8.5 20 -17.5 10.3 -9 19.3 -16.8 20 -17.5 0.8 -0.8 8.5 -7.5 17.5 -15 9 -7.5 16.8 -14.3 17.5 -15 0.8 -0.8 8.5 -7.5 17.5 -15 9 -7.5 16.8 -14.3 17.5 -15 0.8 -0.8 8.5 -7.5 17.5 -15 9 -7.5 16.8 -14.3 17.5 -15 0.8 -0.8 8.5 -7.5 17.5 -15 9 -7.5 16.8 -14.3 17.5 -15 0.8 -0.8 8.5 -7.5 17.5 -15 9 -7.5 16.8 -14.3 17.5 -15 0.8 -0.8 17.5 -15.5 37.5 -32.5 20 -17 36.8 -31.8 37.5 -32.5 0.8 -0.8 8.5 -7.5 17.5 -15 9 -7.5 16.8 -14.3 17.5 -15 0.8 -0.8 8.5 -7.5 17.5 -15 9 -7.5 16.8 -14.3 17.5 -15 0.8 -0.8 8.5 -7.5 17.5 -15 9 -7.5 16.8 -14.3 17.5 -15 0.8 -0.8 8.5 -7.5 17.5 -15 9 -7.5 16.8 -14.3 17.5 -15 0.8 -0.8 8.5 -7.5 17.5 -15 8.8 -7.5 19 -16.3 22.5 -19.5 3.5 -3 25 -21.5 48 -41.3 l41.5 -35.5 -703.3 -0.8 c-386.8 -0.3 -1020.8 -0.3 -1408.8 0 l-705.5 0.8 19.5 16.8 c11 9 22 18.8 24.8 21.3 2.8 2.5 12.3 10.8 21.3 18.3 9 7.5 16.8 14.3 17.5 15 0.8 0.8 17.5 15.5 37.5 32.5 20 17 36.8 31.8 37.5 32.5 0.8 0.8 8.5 7.5 17.5 15 9 7.5 16.8 14.3 17.5 15 0.8 0.8 17.5 15.5 37.5 32.5 20 17 36.8 31.8 37.5 32.5 0.8 0.8 8.5 7.5 17.5 15 9 7.5 16.8 14.3 17.5 15 0.8 0.8 8.5 7.5 17.5 15 9 7.5 16.8 14.3 17.5 15 0.8 0.8 9.8 8.5 20 17.5 10.3 9 19.3 16.8 20 17.5 0.8 0.8 8.5 7.5 17.5 15 9 7.5 16.8 14.3 17.5 15 0.8 0.8 8.5 7.5 17.5 15 9 7.5 16.8 14.3 17.5 15 0.8 0.8 9.8 8.5 20 17.5 10.3 9 19.3 16.8 20 17.5 0.8 0.8 8.5 7.5 17.5 15 9 7.5 16.8 14.3 17.5 15 0.8 0.8 8.5 7.5 17.5 15 9 7.5 16.8 14.3 17.5 15 0.8 0.8 9.8 8.5 20 17.5 10.3 9 19.3 16.8 20 17.5 0.8 0.8 8.5 7.5 17.5 15 9 7.5 16.8 14.3 17.5 15 0.8 0.8 8.5 7.5 17.5 15 9 7.5 16.8 14.3 17.5 15 0.8 0.8 9.8 8.5 20 17.5 10.3 9 19.3 16.8 20 17.5 0.8 0.8 8.5 7.5 17.5 15 9 7.5 16.8 14.3 17.5 15 0.8 0.8 8.5 7.5 17.5 15 9 7.5 16.8 14.3 17.5 15 0.8 0.8 17.5 15.5 37.5 32.5 20 17 36.8 31.8 37.5 32.5 0.8 0.8 8.5 7.5 17.5 15 9 7.5 16.8 14.3 17.5 15 0.8 0.8 17.5 15.5 37.5 32.5 20 17 36.8 31.8 37.5 32.5 0.8 0.8 8.5 7.5 17.5 15 9 7.5 16.8 14.3 17.5 15 0.8 0.8 17.5 15.5 37.5 32.5 20 17 36.8 31.8 37.5 32.5 0.8 0.8 8.5 7.5 17.5 15 9 7.5 16.8 14.3 17.5 15 0.8 0.8 8.5 7.5 17.5 15 9 7.5 16.8 14.3 17.5 15 0.8 0.8 9.8 8.5 20 17.5 10.3 9 19.3 16.8 20 17.5 0.8 0.8 8.5 7.5 17.5 15 9 7.5 16.8 14.3 17.5 15 0.8 0.8 8.5 7.5 17.5 15 9 7.5 16.8 14.3 17.5 15 0.8 0.8 9.8 8.5 20 17.5 10.3 9 19.3 16.8 20 17.5 0.8 0.8 8.5 7.5 17.5 15 9 7.5 16.8 14.3 17.5 15 6.5 7 33 27.8 39.8 31.3 22.3 11.3 42.8 14.3 60 8.3z"/>
 </g>
 <g fill="#ffffff">
  <path d="M1047.5 3621.5 c-49 -11 -88 -51 -99 -102 -2.8 -13 -3.3 -178.3 -3.5 -992.8 0 -609.5 1 -976.8 2.3 -976.3 2 0.5 80.8 67.3 99 83.8 3 2.5 12.5 10.8 21.3 18.3 9 7.5 16.8 14.3 17.5 15 0.8 0.8 8.5 7.5 17.5 15 9 7.5 16.8 14.3 17.5 15 0.8 0.8 8.5 7.5 17.5 15 9 7.5 16.8 14.3 17.5 15 0.8 0.8 8.5 7.5 17.5 15 9 7.5 16.8 14.3 17.5 15 0.8 0.8 8.5 7.5 17.5 15 9 7.5 16.8 14.3 17.5 15 0.8 0.8 8.5 7.5 17.5 15 9 7.5 16.8 14.3 17.5 15 0.8 1 25.5 22.3 55 47.5 29.5 25.3 54.3 46.5 55 47.5 0.8 0.8 8.5 7.5 17.5 15 9 7.5 16.8 14.3 17.5 15 0.8 0.8 8.5 7.5 17.5 15 9 7.5 16.8 14.3 17.5 15 0.8 0.8 8.5 7.5 17.5 15 9 7.5 16.8 14.3 17.5 15 0.8 0.8 8.5 7.5 17.5 15 9 7.5 16.8 14.3 17.5 15 0.8 0.8 8.5 7.5 17.5 15 9 7.5 16.8 14.3 17.5 15 0.8 0.8 8.5 7.5 17.5 15 9 7.5 16.8 14.3 17.5 15 0.8 0.8 8.5 7.5 17.5 15 9 7.5 16.8 14.3 17.5 15 0.8 0.8 17.5 15.5 37.5 32.5 20 17 36.8 31.8 37.5 32.5 0.8 0.8 8.5 7.5 17.5 15 9 7.5 16.8 14.3 17.5 15 0.8 0.8 8.5 7.5 17.5 15 9 7.5 16.8 14.3 17.5 15 0.8 0.8 8.5 7.5 17.5 15 9 7.5 16.8 14.3 17.5 15 0.8 0.8 8.5 7.5 17.5 15 9 7.5 16.8 14.3 17.5 15 0.8 0.8 8.5 7.5 17.5 15 9 7.5 16.8 14.3 17.5 15 0.8 0.8 8.5 7.5 17.5 15 9 7.5 16.8 14.3 17.5 15 0.8 0.8 8.5 7.5 17.5 15 9 7.5 16.8 14.3 17.5 15 0.8 0.8 8.5 7.5 17.5 15 9 7.5 16.8 14.3 17.5 15 0.8 1 25.5 22.3 55 47.5 29.5 25.3 54.3 46.5 55 47.5 0.8 0.8 8.5 7.5 17.5 15 9 7.5 16.8 14.3 17.5 15 0.8 0.8 8.5 7.5 17.5 15 9 7.5 16.8 14.3 17.5 15 0.8 0.8 8.5 7.5 17.5 15 9 7.5 16.8 14.3 17.5 15 0.8 0.8 8.5 7.5 17.5 15 9 7.5 16.8 14.3 17.5 15 0.8 0.8 8.5 7.5 17.5 15 9 7.5 16.8 14.3 17.5 15 0.8 0.8 8.5 7.5 17.5 15 8.8 7.5 18.3 15.8 21.3 18.5 53.8 49 109.8 78.5 171.3 90.5 21.8 4 76.3 4.8 95.5 1 38.5 -7.8 58.8 -14.5 89.3 -30.5 21 -10.8 52.3 -33 70.3 -50 3.5 -3.3 13.5 -12 22.5 -19.5 9 -7.5 16.8 -14.3 17.5 -15 0.8 -0.8 17.5 -15.5 37.5 -32.5 20 -17 36.8 -31.8 37.5 -32.5 0.8 -0.8 8.5 -7.5 17.5 -15 9 -7.5 16.8 -14.3 17.5 -15 0.8 -0.8 8.5 -7.5 17.5 -15 9 -7.5 16.8 -14.3 17.5 -15 0.8 -0.8 9.8 -8.5 20 -17.5 10.3 -9 19.3 -16.8 20 -17.5 0.8 -0.8 8.5 -7.5 17.5 -15 9 -7.5 16.8 -14.3 17.5 -15 0.8 -0.8 8.5 -7.5 17.5 -15 9 -7.5 16.8 -14.3 17.5 -15 0.8 -0.8 17.5 -15.5 37.5 -32.5 20 -17 36.8 -31.8 37.5 -32.5 0.8 -0.8 8.5 -7.5 17.5 -15 9 -7.5 16.8 -14.3 17.5 -15 0.8 -0.8 17.5 -15.5 37.5 -32.5 20 -17 36.8 -31.8 37.5 -32.5 0.8 -0.8 8.5 -7.5 17.5 -15 9 -7.5 16.8 -14.3 17.5 -15 0.8 -0.8 8.5 -7.5 17.5 -15 9 -7.5 16.8 -14.3 17.5 -15 0.8 -0.8 9.8 -8.5 20 -17.5 10.3 -9 19.3 -16.8 20 -17.5 0.8 -0.8 8.5 -7.5 17.5 -15 9 -7.5 16.8 -14.3 17.5 -15 0.8 -0.8 8.5 -7.5 17.5 -15 9 -7.5 16.8 -14.3 17.5 -15 0.8 -0.8 9.8 -8.5 20 -17.5 10.3 -9 19.3 -16.8 20 -17.5 0.8 -0.8 8.5 -7.5 17.5 -15 9 -7.5 16.8 -14.3 17.5 -15 0.8 -0.8 8.5 -7.5 17.5 -15 9 -7.5 16.8 -14.3 17.5 -15 0.8 -0.8 17.5 -15.5 37.5 -32.5 20 -17 36.8 -31.8 37.5 -32.5 0.8 -0.8 8.5 -7.5 17.5 -15 9 -7.5 16.8 -14.3 17.5 -15 0.8 -0.8 8.5 -7.5 17.5 -15 9 -7.5 16.8 -14.3 17.5 -15 0.8 -0.8 9.8 -8.5 20 -17.5 10.3 -9 19.3 -16.8 20 -17.5 0.8 -0.8 8.5 -7.5 17.5 -15 9 -7.5 16.8 -14.3 17.5 -15 0.8 -0.8 8.5 -7.5 17.5 -15 9 -7.5 16.8 -14.3 17.5 -15 0.8 -0.8 9.8 -8.5 20 -17.5 10.3 -9 19.3 -16.8 20 -17.5 0.8 -0.8 8.5 -7.5 17.5 -15 9 -7.5 16.8 -14.3 17.5 -15 0.8 -0.8 8.5 -7.5 17.5 -15 9 -7.5 16.8 -14.3 17.5 -15 0.8 -0.8 17.5 -15.5 37.5 -32.5 20 -17 36.8 -31.8 37.5 -32.5 0.8 -0.8 8.5 -7.5 17.5 -15 9 -7.5 16.8 -14.3 17.5 -15 0.8 -0.8 8.5 -7.5 17.5 -15 9 -7.5 16.8 -14.3 17.5 -15 0.8 -0.8 9.8 -8.5 20 -17.5 10.3 -9 21.5 -18.8 25 -21.8 3.5 -3.3 7 -5.8 8 -5.8 1.3 0 2 435.8 2 968.3 -0.3 807 -0.8 970.8 -3.5 983.8 -11 51.5 -50 91.3 -100.3 102 -21.5 4.8 -2883 4.5 -2903.8 0z"/>
  <path d="M2482.3 2576.3 c-16 -5.8 -25.8 -11.8 -41 -24.8 -8.3 -7 -15.5 -13.3 -16.3 -14 -0.8 -0.8 -8.5 -7.5 -17.5 -15 -9 -7.5 -16.8 -14.3 -17.5 -15 -0.8 -0.8 -9.8 -8.5 -20 -17.5 -10.3 -9 -19.3 -16.8 -20 -17.5 -0.8 -0.8 -8.5 -7.5 -17.5 -15 -9 -7.5 -16.8 -14.3 -17.5 -15 -0.8 -0.8 -8.5 -7.5 -17.5 -15 -9 -7.5 -16.8 -14.3 -17.5 -15 -0.8 -0.8 -9.8 -8.5 -20 -17.5 -10.3 -9 -19.3 -16.8 -20 -17.5 -0.8 -0.8 -8.5 -7.5 -17.5 -15 -9 -7.5 -16.8 -14.3 -17.5 -15 -0.8 -0.8 -8.5 -7.5 -17.5 -15 -9 -7.5 -16.8 -14.3 -17.5 -15 -0.8 -0.8 -17.5 -15.5 -37.5 -32.5 -20 -17 -36.8 -31.8 -37.5 -32.5 -0.8 -0.8 -8.5 -7.5 -17.5 -15 -9 -7.5 -16.8 -14.3 -17.5 -15 -0.8 -0.8 -17.5 -15.5 -37.5 -32.5 -20 -17 -36.8 -31.8 -37.5 -32.5 -0.8 -0.8 -8.5 -7.5 -17.5 -15 -9 -7.5 -16.8 -14.3 -17.5 -15 -0.8 -0.8 -17.5 -15.5 -37.5 -32.5 -20 -17 -36.8 -31.8 -37.5 -32.5 -0.8 -0.8 -8.5 -7.5 -17.5 -15 -9 -7.5 -16.8 -14.3 -17.5 -15 -0.8 -0.8 -8.5 -7.5 -17.5 -15 -9 -7.5 -16.8 -14.3 -17.5 -15 -0.8 -0.8 -9.8 -8.5 -20 -17.5 -10.3 -9 -19.3 -16.8 -20 -17.5 -0.8 -0.8 -8.5 -7.5 -17.5 -15 -9 -7.5 -16.8 -14.3 -17.5 -15 -0.8 -0.8 -8.5 -7.5 -17.5 -15 -9 -7.5 -16.8 -14.3 -17.5 -15 -0.8 -0.8 -9.8 -8.5 -20 -17.5 -10.3 -9 -19.3 -16.8 -20 -17.5 -0.8 -0.8 -8.5 -7.5 -17.5 -15 -9 -7.5 -16.8 -14.3 -17.5 -15 -0.8 -0.8 -8.5 -7.5 -17.5 -15 -9 -7.5 -16.8 -14.3 -17.5 -15 -0.8 -0.8 -9.8 -8.5 -20 -17.5 -10.3 -9 -19.3 -16.8 -20 -17.5 -0.8 -0.8 -8.5 -7.5 -17.5 -15 -9 -7.5 -16.8 -14.3 -17.5 -15 -0.8 -0.8 -8.5 -7.5 -17.5 -15 -9 -7.5 -16.8 -14.3 -17.5 -15 -0.8 -0.8 -9.8 -8.5 -20 -17.5 -10.3 -9 -19.3 -16.8 -20 -17.5 -0.8 -0.8 -8.5 -7.5 -17.5 -15 -9 -7.5 -16.8 -14.3 -17.5 -15 -0.8 -0.8 -8.5 -7.5 -17.5 -15 -9 -7.5 -16.8 -14.3 -17.5 -15 -0.8 -0.8 -17.5 -15.5 -37.5 -32.5 -20 -17 -36.8 -31.8 -37.5 -32.5 -0.8 -0.8 -8.5 -7.5 -17.5 -15 -9 -7.5 -16.8 -14.3 -17.5 -15 -0.8 -0.8 -17.5 -15.5 -37.5 -32.5 -20 -17 -36.8 -31.8 -37.5 -32.5 -0.8 -0.8 -8.5 -7.5 -17.5 -15 -9 -7.5 -16.8 -14.3 -17.5 -15 -0.8 -0.8 -13.5 -12 -28.8 -24.8 -15 -13 -29.8 -25.8 -32.5 -28.3 -4.8 -4.3 38.3 -4.5 1428.3 -4.5 788.3 0 1433 0.8 1432.8 2 0 1 -22.3 20.5 -49.3 43.5 -27 23 -52 44.5 -55.5 47.5 -3.5 3.3 -13.8 12 -22.5 19.5 -9 7.5 -16.8 14.3 -17.5 15 -0.8 0.8 -8.5 7.5 -17.5 15 -9 7.5 -16.8 14.3 -17.5 15 -0.8 0.8 -8.5 7.5 -17.5 15 -9 7.5 -16.8 14.3 -17.5 15 -0.8 0.8 -8.5 7.5 -17.5 15 -9 7.5 -16.8 14.3 -17.5 15 -0.8 0.8 -8.5 7.5 -17.5 15 -9 7.5 -16.8 14.3 -17.5 15 -0.8 0.8 -17.5 15.5 -37.5 32.5 -20 17 -36.8 31.8 -37.5 32.5 -0.8 0.8 -8.5 7.5 -17.5 15 -9 7.5 -16.8 14.3 -17.5 15 -0.8 0.8 -8.5 7.5 -17.5 15 -9 7.5 -16.8 14.3 -17.5 15 -0.8 0.8 -8.5 7.5 -17.5 15 -9 7.5 -16.8 14.3 -17.5 15 -0.8 0.8 -8.5 7.5 -17.5 15 -9 7.5 -16.8 14.3 -17.5 15 -0.8 0.8 -8.5 7.5 -17.5 15 -9 7.5 -16.8 14.3 -17.5 15 -0.8 0.8 -9.8 8.5 -20 17.5 -10.3 9 -19.3 16.8 -20 17.5 -0.8 0.8 -8.5 7.5 -17.5 15 -9 7.5 -16.8 14.3 -17.5 15 -0.8 0.8 -8.5 7.5 -17.5 15 -9 7.5 -16.8 14.3 -17.5 15 -0.8 0.8 -8.5 7.5 -17.5 15 -9 7.5 -16.8 14.3 -17.5 15 -0.8 0.8 -8.5 7.5 -17.5 15 -9 7.5 -16.8 14.3 -17.5 15 -0.8 0.8 -8.5 7.5 -17.5 15 -9 7.5 -16.8 14.3 -17.5 15 -0.8 0.8 -17.5 15.5 -37.5 32.5 -20 17 -36.8 31.8 -37.5 32.5 -0.8 0.8 -8.5 7.5 -17.5 15 -9 7.5 -16.8 14.3 -17.5 15 -0.8 0.8 -8.5 7.5 -17.5 15 -9 7.5 -16.8 14.3 -17.5 15 -0.8 0.8 -8.5 7.5 -17.5 15 -9 7.5 -16.8 14.3 -17.5 15 -0.8 0.8 -8.5 7.5 -17.5 15 -9 7.5 -16.8 14.3 -17.5 15 -0.8 0.8 -8.5 7.5 -17.5 15 -9 7.5 -16.8 14.3 -17.5 15 -0.8 0.8 -17.5 15.5 -37.5 32.5 -20 17 -36.8 31.8 -37.5 32.5 -0.8 0.8 -8.5 7.5 -17.5 15 -9 7.5 -16.8 14.3 -17.5 15 -0.8 0.8 -8.5 7.5 -17.5 15 -9 7.5 -16.8 14.3 -17.5 15 -0.8 0.8 -8.5 7.5 -17.5 15 -9 7.5 -16.8 14.3 -17.5 15 -0.8 0.8 -8.5 7.5 -17.5 15 -9 7.5 -16.8 14.3 -17.5 15 -0.8 0.8 -17.5 15.5 -37.5 32.5 -20 17 -36.8 31.8 -37.5 32.5 -0.8 0.8 -8.5 7.5 -17.5 15 -9 7.5 -16.8 14.3 -17.5 15 -0.8 0.8 -8.5 7.5 -17.5 15 -9 7.5 -18.5 15.8 -21.3 18.3 -9 8.5 -32.3 23 -41.5 26.3 -11.5 4 -46 3.5 -57.5 -0.8z"/>
 </g>
</svg>